<?xml version="1.0" encoding="UTF-8"?>
<svg xmlns="http://www.w3.org/2000/svg" xmlns:xlink="http://www.w3.org/1999/xlink" width="30px" height="30px" viewBox="0 0 30 30" version="1.1">
<g id="surface1">
<path style=" stroke:none;fill-rule:nonzero;fill:rgb(0%,0%,0%);fill-opacity:1;" d="M 26.25 15.9375 L 17.1875 15.9375 C 16.496094 15.9375 15.9375 16.496094 15.9375 17.1875 L 15.9375 26.25 C 15.9375 26.941406 16.496094 27.5 17.1875 27.5 L 26.25 27.5 C 26.941406 27.5 27.5 26.941406 27.5 26.25 L 27.5 17.1875 C 27.5 16.496094 26.941406 15.9375 26.25 15.9375 Z M 25 24.375 L 18.75 24.375 L 18.75 22.5 L 25 22.5 Z M 25 21.25 L 18.75 21.25 L 18.75 19.375 L 25 19.375 Z M 25 21.25 "/>
<path style=" stroke:none;fill-rule:nonzero;fill:rgb(0%,0%,0%);fill-opacity:1;" d="M 12.8125 2.5 L 3.75 2.5 C 3.058594 2.5 2.5 3.058594 2.5 3.75 L 2.5 12.8125 C 2.5 13.503906 3.058594 14.0625 3.75 14.0625 L 12.8125 14.0625 C 13.503906 14.0625 14.0625 13.503906 14.0625 12.8125 L 14.0625 3.75 C 14.0625 3.058594 13.503906 2.5 12.8125 2.5 Z M 11.25 9.0625 L 9.0625 9.0625 L 9.0625 11.25 L 7.1875 11.25 L 7.1875 9.0625 L 5 9.0625 L 5 7.1875 L 7.1875 7.1875 L 7.1875 5 L 9.0625 5 L 9.0625 7.1875 L 11.25 7.1875 Z M 11.25 9.0625 "/>
<path style=" stroke:none;fill-rule:nonzero;fill:rgb(0%,0%,0%);fill-opacity:1;" d="M 12.8125 15.9375 L 3.75 15.9375 C 3.058594 15.9375 2.5 16.496094 2.5 17.1875 L 2.5 26.25 C 2.5 26.941406 3.058594 27.5 3.75 27.5 L 12.8125 27.5 C 13.503906 27.5 14.0625 26.941406 14.0625 26.25 L 14.0625 17.1875 C 14.0625 16.496094 13.503906 15.9375 12.8125 15.9375 Z M 11 23.4375 L 9.6875 24.75 L 8.125 23.1875 L 6.5625 24.75 L 5.25 23.4375 L 6.8125 21.875 L 5.25 20.3125 L 6.5625 19 L 8.125 20.5625 L 9.6875 19 L 11 20.3125 L 9.4375 21.875 Z M 11 23.4375 "/>
<path style=" stroke:none;fill-rule:nonzero;fill:rgb(0%,0%,0%);fill-opacity:1;" d="M 26.25 2.5 L 17.1875 2.5 C 16.496094 2.5 15.9375 3.058594 15.9375 3.75 L 15.9375 12.8125 C 15.9375 13.503906 16.496094 14.0625 17.1875 14.0625 L 26.25 14.0625 C 26.941406 14.0625 27.5 13.503906 27.5 12.8125 L 27.5 3.75 C 27.5 3.058594 26.941406 2.5 26.25 2.5 Z M 25 9.0625 L 18.75 9.0625 L 18.75 7.1875 L 25 7.1875 Z M 25 9.0625 "/>
</g>
</svg>
